<svg width="535" height="184" viewBox="0 0 535 184" fill="none" xmlns="http://www.w3.org/2000/svg">
<path d="M474.973 158.782V175.985H420.624V107.072H474.821V124.427H442.648V132.546H471.827V149.749H442.648V158.782H474.973Z" fill="black" style="fill:black;fill-opacity:1;"/>
<path d="M350.492 141.528C350.492 117.728 369.319 106.26 391.851 106.057C398.752 106.057 405.349 107.021 413.113 110.116L411.489 128.842C406.821 126.457 400.68 124.833 393.525 124.833C382.666 124.833 372.973 129.197 372.973 141.224C372.973 153.403 383.68 158.021 394.286 158.021C399.615 158.021 405.248 156.448 411.489 152.591L414.991 171.113C405.806 176.391 397.991 177 389.313 177C367.898 177 350.492 163.298 350.492 141.528Z" fill="black" style="fill:black;fill-opacity:1;"/>
<path d="M344.403 107.072V175.985H322.379V107.072H344.403Z" fill="black" style="fill:black;fill-opacity:1;"/>
<path d="M271.481 157.666V175.985H249.71V107.072H285.69C304.11 107.072 312.839 118.388 312.839 131.988C312.839 142.543 306.648 150.51 300.304 152.946L317.051 176.036H291.069L278.281 157.666H271.481ZM281.122 125.239H271.481V140.057H281.122C286.857 140.057 290.561 138.027 290.561 132.597C290.561 127.116 287.263 125.239 281.122 125.239Z" fill="black" style="fill:black;fill-opacity:1;"/>
<path d="M212.412 125.086H203.024V140.057H212.412C218.146 140.057 221.851 138.027 221.851 132.597C221.851 126.964 218.552 125.086 212.412 125.086ZM244.128 131.937C244.128 145.689 235.4 157.97 216.979 157.97H203.024V175.985H181V107.072H216.979C235.4 107.072 244.128 118.54 244.128 131.937Z" fill="black" style="fill:black;fill-opacity:1;"/>
<path d="M534.752 59.7253V76.9283H480.403V8.01489L534.6 8.01489V25.3701L502.427 25.3701V33.4895H531.606V50.6925H502.427V59.7253H534.752Z" fill="black" style="fill:black;fill-opacity:1;"/>
<path d="M425.546 43.182V76.9283H404.385V8.01489L421.994 8.01489L451.478 42.2179V8.01489L472.689 8.01489V76.9283H456.248L425.546 43.182Z" fill="black" style="fill:black;fill-opacity:1;"/>
<path d="M324.409 42.3701C324.409 21.5134 339.531 7 361.454 7C383.224 7 398.295 21.5642 398.295 42.4209C398.295 63.3283 383.224 77.9433 361.454 77.9433C339.531 77.9433 324.409 63.3283 324.409 42.3701ZM346.636 42.4209C346.636 52.0627 352.573 58.6089 361.504 58.6089C370.233 58.6089 376.018 52.0627 376.018 42.4209C376.018 32.9821 370.233 26.5373 361.504 26.5373C352.573 26.5373 346.636 32.9821 346.636 42.4209Z" fill="black" style="fill:black;fill-opacity:1;"/>
<path d="M271.734 50.4388V76.9283H249.71V8.01489L271.734 8.01489V33.185H296.245V8.01489L318.269 8.01489V76.9283H296.245V50.4388H271.734Z" fill="black" style="fill:black;fill-opacity:1;"/>
<path d="M212.412 26.0298H203.024V41H212.412C218.146 41 221.851 38.9701 221.851 33.5403C221.851 27.9074 218.552 26.0298 212.412 26.0298ZM244.128 32.8806C244.128 46.6328 235.4 58.9134 216.979 58.9134H203.024V76.9283H181V8.01489L216.979 8.01489C235.4 8.01489 244.128 19.4835 244.128 32.8806Z" fill="black" style="fill:black;fill-opacity:1;"/>
<path fill-rule="evenodd" clip-rule="evenodd" d="M75.48 0H74.52C58.7657 0 46.2943 0 36.5229 1.3094C26.4771 2.66158 18.3429 5.50288 11.9229 11.9044C5.51142 18.3144 2.66572 26.4361 1.31143 36.4662C3.33786e-06 46.214 0 58.6746 0 74.4045V109.596C0 125.325 3.33786e-06 137.777 1.31143 147.534C2.66572 157.564 5.51142 165.686 11.9229 172.096C18.3429 178.497 26.4771 181.338 36.5229 182.691C46.2857 184 58.7657 184 74.52 184H75.48C91.2343 184 103.706 184 113.477 182.691C123.523 181.338 131.657 178.497 138.077 172.096C144.489 165.686 147.334 157.564 148.689 147.534C150 137.786 150 125.325 150 109.596V74.4045C150 58.6746 150 46.2225 148.689 36.4662C147.334 26.4361 144.489 18.3144 138.077 11.9044C131.657 5.50288 123.523 2.66158 113.477 1.3094C103.714 0 91.2343 0 75.48 0Z" fill="black" style="fill:black;fill-opacity:1;"/>
<rect x="54" y="152" width="41" height="7" rx="3.5" fill="white" style="fill:white;fill-opacity:1;"/>
<path d="M109.507 66.7424L95.0889 94.6129H102.95V86.0402H117.07V94.6129H124V106.488H117.07V117.139H102.689V106.488H78.3607V96.8395L92.928 66.7424H109.507Z" fill="#84F0BE" style="fill:#84F0BE;fill:color(display-p3 0.5172 0.9393 0.7434);fill-opacity:1;"/>
<path d="M57.0872 104.113H76.3861V117.213H36V106.34L53.9204 91.9407C57.6088 88.9718 58.1676 86.7822 58.1676 84.2587C58.1676 82.1804 56.6401 78.7291 51.0144 78.7291C44.8671 78.7291 39.5394 81.3269 37.9746 82.4773L36.4471 69.4513C40.8806 67.3731 45.724 66 52.5419 66C63.309 66 74.2252 70.1193 74.2252 82.5887C74.2252 85.9287 74.0762 93.4251 57.0872 104.113Z" fill="#84F0BE" style="fill:#84F0BE;fill:color(display-p3 0.5172 0.9393 0.7434);fill-opacity:1;"/>
</svg>
