<svg width="173" height="202" viewBox="0 0 173 202" fill="none" xmlns="http://www.w3.org/2000/svg">
<path d="M74.52 18H75.48C91.2343 18 103.714 18 113.477 19.3094C123.523 20.6616 131.657 23.5029 138.077 29.9044C144.489 36.3144 147.334 44.4361 148.689 54.4662C150 64.2225 150 76.6746 150 92.4045V127.596C150 143.325 150 155.786 148.689 165.534C147.334 175.564 144.489 183.686 138.077 190.096C131.657 196.497 123.523 199.338 113.477 200.691C103.706 202 91.2343 202 75.48 202H74.52C58.7657 202 46.2857 202 36.5229 200.691C26.4771 199.338 18.3429 196.497 11.9229 190.096C5.51143 183.686 2.66572 175.564 1.31143 165.534C9.53674e-07 155.777 0 143.325 0 127.596V92.4045C0 76.6746 9.53674e-07 64.214 1.31143 54.4662C2.66572 44.4361 5.51143 36.3144 11.9229 29.9044C18.3429 23.5029 26.4771 20.6616 36.5229 19.3094C46.2943 18 58.7657 18 74.52 18Z" fill="black" style="fill:black;fill-opacity:1;"/>
<path d="M29.9531 88.3281H27.0625V92.9375H29.9531C31.7188 92.9375 32.8594 92.3125 32.8594 90.6406C32.8594 88.9062 31.8438 88.3281 29.9531 88.3281ZM39.7188 90.4375C39.7188 94.6719 37.0312 98.4531 31.3594 98.4531H27.0625V104H20.2812V82.7812H31.3594C37.0312 82.7812 39.7188 86.3125 39.7188 90.4375ZM48.2188 95.8438V104H41.4375V82.7812H48.2188V90.5312H55.7656V82.7812H62.5469V104H55.7656V95.8438H48.2188ZM64.4375 93.3594C64.4375 86.9375 69.0938 82.4688 75.8438 82.4688C82.5469 82.4688 87.1875 86.9531 87.1875 93.375C87.1875 99.8125 82.5469 104.312 75.8438 104.312C69.0938 104.312 64.4375 99.8125 64.4375 93.3594ZM71.2812 93.375C71.2812 96.3438 73.1094 98.3594 75.8594 98.3594C78.5469 98.3594 80.3281 96.3438 80.3281 93.375C80.3281 90.4688 78.5469 88.4844 75.8594 88.4844C73.1094 88.4844 71.2812 90.4688 71.2812 93.375ZM95.5781 93.6094V104H89.0625V82.7812H94.4844L103.562 93.3125V82.7812H110.094V104H105.031L95.5781 93.6094ZM129.203 98.7031V104H112.469V82.7812H129.156V88.125H119.25V90.625H128.234V95.9219H119.25V98.7031H129.203ZM39.1562 118.328H36.2656V122.938H39.1562C40.9219 122.938 42.0625 122.312 42.0625 120.641C42.0625 118.906 41.0469 118.328 39.1562 118.328ZM48.9219 120.438C48.9219 124.672 46.2344 128.453 40.5625 128.453H36.2656V134H29.4844L29.4844 112.781H40.5625C46.2344 112.781 48.9219 116.312 48.9219 120.438ZM57.3438 128.359V134H50.6406V112.781H61.7188C67.3906 112.781 70.0781 116.266 70.0781 120.453C70.0781 123.703 68.1719 126.156 66.2188 126.906L71.375 134.016H63.375L59.4375 128.359H57.3438ZM60.3125 118.375H57.3438V122.938H60.3125C62.0781 122.938 63.2188 122.312 63.2188 120.641C63.2188 118.953 62.2031 118.375 60.3125 118.375ZM79.7969 112.781V134H73.0156V112.781H79.7969ZM81.6719 123.391C81.6719 116.062 87.4688 112.531 94.4062 112.469C96.5312 112.469 98.5625 112.766 100.953 113.719L100.453 119.484C99.0156 118.75 97.125 118.25 94.9219 118.25C91.5781 118.25 88.5938 119.594 88.5938 123.297C88.5938 127.047 91.8906 128.469 95.1562 128.469C96.7969 128.469 98.5312 127.984 100.453 126.797L101.531 132.5C98.7031 134.125 96.2969 134.312 93.625 134.312C87.0312 134.312 81.6719 130.094 81.6719 123.391ZM120 128.703V134H103.266V112.781H119.953V118.125H110.047V120.625H119.031V125.922H110.047V128.703H120Z" fill="white" style="fill:white;fill-opacity:1;"/>
<circle cx="137" cy="36" r="30" fill="white" stroke="black" style="fill:white;fill-opacity:1;stroke:black;stroke-opacity:1;" stroke-width="12" stroke-linecap="round" stroke-linejoin="round"/>
<path d="M128.079 39.8584H135.667V45.0293H119.788V40.7373L126.834 35.0537C128.284 33.8818 128.504 33.0176 128.504 32.0215C128.504 31.2012 127.903 29.8389 125.691 29.8389C123.274 29.8389 121.18 30.8643 120.564 31.3184L119.964 26.1768C121.707 25.3564 123.611 24.8145 126.292 24.8145C130.525 24.8145 134.817 26.4404 134.817 31.3623C134.817 32.6807 134.759 35.6396 128.079 39.8584ZM148.689 25.1074L143.021 36.1084H146.111V32.7246H151.663V36.1084H154.388V40.7959H151.663V45H146.009V40.7959H136.443V36.9873L142.171 25.1074H148.689Z" fill="black" style="fill:black;fill-opacity:1;"/>
<rect x="34" y="171" width="82" height="9" rx="4.5" fill="white" style="fill:white;fill-opacity:1;"/>
</svg>
