<svg width="800" height="800" viewBox="0 0 800 800" fill="none" xmlns="http://www.w3.org/2000/svg">
<rect width="800" height="800" fill="#121212"/>
<path d="M516.8 670.495H542.626C542.774 675.244 544.556 679.029 547.969 681.849C551.383 684.669 556.133 686.079 562.218 686.079C568.749 686.079 573.647 684.892 576.913 682.517C580.326 680.142 582.033 676.951 582.033 672.944C582.033 670.272 581.143 667.897 579.362 665.819C577.581 663.741 574.241 662.183 569.343 661.144L549.528 656.468C539.583 654.242 532.162 650.68 527.264 645.782C522.514 640.735 520.139 633.833 520.139 625.076C520.139 617.952 521.995 611.792 525.705 606.597C529.565 601.402 534.759 597.469 541.29 594.797C547.821 591.977 555.317 590.567 563.777 590.567C571.94 590.567 579.139 592.051 585.373 595.02C591.607 597.988 596.431 602.144 599.845 607.488C603.407 612.831 605.262 619.065 605.411 626.189H579.584C579.584 621.44 578.1 617.729 575.132 615.057C572.163 612.237 568.007 610.827 562.664 610.827C557.32 610.827 553.164 612.015 550.196 614.389C547.227 616.764 545.743 619.955 545.743 623.963C545.743 630.048 550.493 634.204 559.992 636.431L579.807 641.106C589.009 643.184 595.911 646.524 600.512 651.125C605.262 655.726 607.637 662.257 607.637 670.717C607.637 678.139 605.707 684.595 601.848 690.087C597.989 695.43 592.572 699.586 585.596 702.555C578.62 705.375 570.605 706.785 561.55 706.785C547.895 706.785 536.986 703.445 528.822 696.766C520.807 690.087 516.8 681.33 516.8 670.495Z" fill="white"/>
<path d="M422.647 670.495H448.473C448.622 675.244 450.403 679.029 453.817 681.849C457.23 684.669 461.98 686.079 468.066 686.079C474.596 686.079 479.494 684.892 482.76 682.517C486.174 680.142 487.881 676.951 487.881 672.944C487.881 670.272 486.99 667.897 485.209 665.819C483.428 663.741 480.088 662.183 475.19 661.144L455.375 656.468C445.43 654.242 438.009 650.68 433.111 645.782C428.361 640.735 425.987 633.833 425.987 625.076C425.987 617.952 427.842 611.792 431.553 606.597C435.412 601.402 440.607 597.469 447.137 594.797C453.668 591.977 461.164 590.567 469.624 590.567C477.788 590.567 484.986 592.051 491.22 595.02C497.454 597.988 502.278 602.144 505.692 607.488C509.254 612.831 511.109 619.065 511.258 626.189H485.431C485.431 621.44 483.947 617.729 480.979 615.057C478.01 612.237 473.854 610.827 468.511 610.827C463.167 610.827 459.012 612.015 456.043 614.389C453.074 616.764 451.59 619.955 451.59 623.963C451.59 630.048 456.34 634.204 465.839 636.431L485.654 641.106C494.857 643.184 501.758 646.524 506.36 651.125C511.109 655.726 513.484 662.257 513.484 670.717C513.484 678.139 511.555 684.595 507.695 690.087C503.836 695.43 498.419 699.586 491.443 702.555C484.467 705.375 476.452 706.785 467.398 706.785C453.742 706.785 442.833 703.445 434.67 696.766C426.654 690.087 422.647 681.33 422.647 670.495Z" fill="white"/>
<path d="M365.286 706.785C354.451 706.785 344.803 704.336 336.343 699.438C328.031 694.391 321.5 687.564 316.75 678.955C312.001 670.198 309.626 660.179 309.626 648.899C309.626 637.47 311.927 627.377 316.528 618.62C321.129 609.862 327.586 603.035 335.898 598.137C344.209 593.09 353.709 590.567 364.395 590.567C375.527 590.567 385.101 592.942 393.116 597.691C401.131 602.293 407.291 608.749 411.595 617.061C416.048 625.373 418.274 635.318 418.274 646.895V655.133L323.875 655.355L324.32 637.989H391.335C391.335 630.419 388.886 624.334 383.988 619.733C379.238 615.132 372.782 612.831 364.618 612.831C358.236 612.831 352.818 614.167 348.365 616.838C344.061 619.51 340.796 623.518 338.569 628.861C336.343 634.204 335.23 640.735 335.23 648.453C335.23 660.327 337.753 669.307 342.799 675.393C347.994 681.478 355.638 684.521 365.731 684.521C373.153 684.521 379.238 683.111 383.988 680.291C388.886 677.471 392.077 673.463 393.561 668.268H418.72C416.345 680.291 410.408 689.716 400.908 696.544C391.558 703.371 379.683 706.785 365.286 706.785Z" fill="white"/>
<path d="M310.299 593.461V618.62H300.28C290.336 618.62 282.543 621.291 276.903 626.635C271.263 631.83 268.443 639.77 268.443 650.457V703.891H241.281V594.129H266.884L269.111 616.839H266.439C267.923 609.566 271.411 603.629 276.903 599.027C282.395 594.426 289.519 592.125 298.277 592.125C300.206 592.125 302.136 592.2 304.065 592.348C305.995 592.497 308.073 592.868 310.299 593.461Z" fill="white"/>
<path d="M140.498 541.141V703.891H112V541.141H140.498ZM176.343 647.786H133.596V622.405H170.332C180.128 622.405 187.549 619.956 192.596 615.058C197.791 610.011 200.388 603.035 200.388 594.129C200.388 585.224 197.791 578.396 192.596 573.647C187.549 568.897 180.276 566.522 170.777 566.522H130.924V541.141H176.343C187.327 541.141 196.826 543.368 204.841 547.82C212.856 552.273 219.09 558.507 223.543 566.522C227.995 574.389 230.222 583.665 230.222 594.352C230.222 604.742 227.995 614.019 223.543 622.182C219.09 630.197 212.856 636.505 204.841 641.107C196.826 645.559 187.327 647.786 176.343 647.786Z" fill="white"/>
<path d="M476.511 394.766H545.974V417.475H476.511V394.766ZM524.824 504.75H497.662V360.479H524.824V504.75Z" fill="white"/>
<path d="M396.977 504.75H366.03L403.879 450.871L366.03 394.766H397.645L421.913 432.169L445.29 394.766H475.792L438.388 450.648L474.679 504.75H443.509L419.909 468.459L396.977 504.75Z" fill="white"/>
<path d="M317.01 507.644C306.174 507.644 296.527 505.195 288.066 500.297C279.755 495.25 273.224 488.423 268.474 479.814C263.724 471.057 261.35 461.038 261.35 449.757C261.35 438.329 263.65 428.236 268.251 419.478C272.853 410.721 279.309 403.894 287.621 398.996C295.933 393.949 305.432 391.426 316.119 391.426C327.251 391.426 336.825 393.801 344.84 398.55C352.855 403.151 359.014 409.608 363.319 417.92C367.772 426.232 369.998 436.176 369.998 447.754V455.991L275.599 456.214L276.044 438.848H343.059C343.059 431.278 340.609 425.193 335.711 420.592C330.962 415.99 324.505 413.69 316.342 413.69C309.959 413.69 304.542 415.026 300.089 417.697C295.785 420.369 292.519 424.377 290.293 429.72C288.066 435.063 286.953 441.594 286.953 449.312C286.953 461.186 289.476 470.166 294.523 476.252C299.718 482.337 307.362 485.38 317.455 485.38C324.876 485.38 330.962 483.97 335.711 481.15C340.609 478.33 343.801 474.322 345.285 469.127H370.443C368.068 481.15 362.131 490.575 352.632 497.402C343.281 504.23 331.407 507.644 317.01 507.644Z" fill="white"/>
<path d="M140.053 504.75H112V342H140.275L224.879 470.018H216.641V342H244.693V504.75H216.641L131.815 376.954H140.053V504.75Z" fill="white"/>
<rect x="480" y="57" width="257" height="43" fill="white"/>
</svg>
